# xmcd
# 
# Track frame offsets:
#     187
#     29355
#     70790
#     106102
#     133907
#     153112
# 
# Disc length: 2708
# 
# Revision: 1
# Processed by: cddbd v1.5.2PL0 Copyright (c) Steve Scherf et al.
# Submitted via: fre:ac v1.0.17
# 
DISCID=450a9206
DTITLE=穐吉敏子=Lew Tabbbackin Big Band - 花魁譚
DYEAR=1975
DGENRE=Big Band
TTITLE0=Road Time Shuffle
TTITLE1=花魁譚 (Tales of a Courtesan)
TTITLE2=Strive for Jive
TTITLE3=I Ain't Gonna Ask No More
TTITLE4=Interlude
TTITLE5=Village
EXTD=YEAR: 1975
EXTT0=
EXTT1=
EXTT2=
EXTT3=
EXTT4=
EXTT5=
PLAYORDER=
